<svg width="20" height="20" viewBox="0 0 20 20" fill="none" xmlns="http://www.w3.org/2000/svg">
<path d="M3.18744 10.4583C2.9412 10.2173 2.93703 9.82242 3.17813 9.57628C3.41922 9.33014 3.81427 9.32598 4.06051 9.56697L8.51898 13.9306C8.76521 14.1716 8.76938 14.5665 8.52829 14.8126C8.2872 15.0588 7.89214 15.0629 7.64591 14.8219L3.18744 10.4583Z" fill="#191310"/>
<path d="M14.8957 5.22558C15.1157 4.96042 15.5091 4.92374 15.7743 5.14364C16.0396 5.36354 16.0763 5.75676 15.8563 6.02191L8.59546 14.7735C8.37548 15.0387 7.98211 15.0754 7.71685 14.8555C7.45159 14.6356 7.41489 14.2424 7.63488 13.9772L14.8957 5.22558Z" fill="#191310"/>
</svg>
